<svg xmlns="http://www.w3.org/2000/svg" viewBox="0 0 1200 630" width="1200" height="630" role="img" aria-label="Brand Mint — We mint brands that compound.">
  <defs>
    <linearGradient id="bg" x1="0" y1="0" x2="1" y2="1">
      <stop offset="0%" stop-color="#FBFAF2"/>
      <stop offset="100%" stop-color="#ECEFE9"/>
    </linearGradient>
    <linearGradient id="mark" x1="0" y1="0" x2="1" y2="1">
      <stop offset="0%" stop-color="#7CF6C8"/>
      <stop offset="100%" stop-color="#10B981"/>
    </linearGradient>
    <linearGradient id="card" x1="0" y1="0" x2="1" y2="1">
      <stop offset="0%" stop-color="#0B1F1A"/>
      <stop offset="100%" stop-color="#14352D"/>
    </linearGradient>
    <linearGradient id="grad-text" x1="0" y1="0" x2="1" y2="0.4">
      <stop offset="0%" stop-color="#064E3B"/>
      <stop offset="55%" stop-color="#10B981"/>
      <stop offset="100%" stop-color="#7CF6C8"/>
    </linearGradient>
    <linearGradient id="line" x1="0" y1="0" x2="0" y2="1">
      <stop offset="0%" stop-color="#7CF6C8" stop-opacity="0.5"/>
      <stop offset="100%" stop-color="#7CF6C8" stop-opacity="0"/>
    </linearGradient>
    <radialGradient id="orb" cx="0.5" cy="0.5" r="0.5">
      <stop offset="0%" stop-color="#C7F5E2" stop-opacity="0.9"/>
      <stop offset="100%" stop-color="#C7F5E2" stop-opacity="0"/>
    </radialGradient>
  </defs>

  <!-- Background -->
  <rect width="1200" height="630" fill="url(#bg)"/>
  <circle cx="120" cy="80" r="280" fill="url(#orb)"/>
  <circle cx="1180" cy="600" r="240" fill="url(#orb)" opacity="0.7"/>

  <!-- Logo + wordmark -->
  <g transform="translate(72, 72)">
    <rect width="44" height="44" rx="11" fill="url(#mark)"/>
    <path d="M12 31V14l10 8.5L32 14v17" stroke="#0B1F1A" stroke-width="3.4" stroke-linecap="round" stroke-linejoin="round" fill="none"/>
    <text x="60" y="30" font-family="Inter, system-ui, sans-serif" font-size="22" font-weight="700" fill="#0B1F1A" letter-spacing="-0.2">Brand Mint</text>
  </g>

  <!-- Eyebrow -->
  <g transform="translate(72, 188)">
    <rect width="248" height="36" rx="18" fill="rgba(16,185,129,0.10)" stroke="rgba(16,185,129,0.25)"/>
    <circle cx="20" cy="18" r="5" fill="#10B981"/>
    <text x="36" y="23" font-family="JetBrains Mono, ui-monospace, monospace" font-size="13" fill="#064E3B" letter-spacing="1">NOW BOOKING — Q3</text>
  </g>

  <!-- Headline -->
  <text x="72" y="318" font-family="Instrument Serif, Times New Roman, serif" font-size="92" fill="#0B1F1A" letter-spacing="-2.5">We mint <tspan font-style="italic" fill="#294A40">brands</tspan></text>
  <text x="72" y="402" font-family="Instrument Serif, Times New Roman, serif" font-size="92" fill="#0B1F1A" letter-spacing="-2.5">that <tspan font-style="italic" fill="url(#grad-text)">compound.</tspan></text>

  <!-- Sub -->
  <text x="72" y="466" font-family="Inter, system-ui, sans-serif" font-size="22" fill="#5D7368">Custom websites &amp; bespoke tools for ambitious teams.</text>

  <!-- Footer line -->
  <line x1="72" y1="552" x2="1128" y2="552" stroke="#D8E0D4"/>
  <text x="72" y="586" font-family="JetBrains Mono, ui-monospace, monospace" font-size="14" fill="#0B1F1A" letter-spacing="1">brandmint.studio</text>
  <text x="1128" y="586" text-anchor="end" font-family="JetBrains Mono, ui-monospace, monospace" font-size="14" fill="#5D7368" letter-spacing="1">DIGITAL MEDIA &amp; MARKETING — STUDIO</text>

  <!-- Dashboard card -->
  <g transform="translate(792, 132) rotate(2.5)">
    <rect width="320" height="280" rx="22" fill="url(#card)"/>
    <!-- window dots -->
    <circle cx="22" cy="22" r="5" fill="#FF6259"/>
    <circle cx="40" cy="22" r="5" fill="#FFBD2D"/>
    <circle cx="58" cy="22" r="5" fill="#7CF6C8"/>
    <text x="80" y="27" font-family="JetBrains Mono, ui-monospace, monospace" font-size="11" fill="rgba(214,245,230,0.6)">brandmint.studio/dashboard</text>

    <!-- Big metric tile -->
    <rect x="20" y="56" width="280" height="148" rx="14" fill="rgba(255,255,255,0.04)" stroke="rgba(124,246,200,0.18)"/>
    <text x="36" y="84" font-family="JetBrains Mono, ui-monospace, monospace" font-size="11" fill="rgba(214,245,230,0.55)" letter-spacing="1.2">CONVERSION</text>
    <text x="36" y="128" font-family="Instrument Serif, serif" font-size="42" fill="#7CF6C8">+182%</text>
    <!-- chart -->
    <path d="M36 188 L70 178 L104 182 L138 162 L172 168 L206 142 L240 138 L274 118 L300 110" stroke="#7CF6C8" stroke-width="2" fill="none"/>
    <path d="M36 188 L70 178 L104 182 L138 162 L172 168 L206 142 L240 138 L274 118 L300 110 L300 196 L36 196 Z" fill="url(#line)"/>

    <!-- Two small tiles -->
    <rect x="20" y="216" width="134" height="46" rx="10" fill="rgba(255,255,255,0.04)" stroke="rgba(124,246,200,0.18)"/>
    <text x="34" y="234" font-family="JetBrains Mono, ui-monospace, monospace" font-size="10" fill="rgba(214,245,230,0.55)" letter-spacing="1.2">SESSIONS</text>
    <text x="34" y="254" font-family="Instrument Serif, serif" font-size="20" fill="#7CF6C8">28.4k</text>

    <rect x="166" y="216" width="134" height="46" rx="10" fill="url(#mark)"/>
    <text x="180" y="234" font-family="JetBrains Mono, ui-monospace, monospace" font-size="10" fill="rgba(11,31,26,0.6)" letter-spacing="1.2">BRAND MINT</text>
    <text x="180" y="254" font-family="Instrument Serif, serif" font-size="20" fill="#0B1F1A">Live</text>
  </g>
</svg>
